# xmcd
#
# Track frame offsets:
#	150
#	16468
#	27002
#	44587
#	62622
#	79526
#	96925
#	112103
#	129347
#	144354
#	159867
#
# Disc length: 2340 seconds
#
# Revision: 1
# Processed by: cddbd v1.5.2PL0 Copyright (c) Steve Scherf et al.
# Submitted via: audiograbber 1.83.01
#
DISCID=8409220b
DTITLE=Tailb Kweli - Fuck the money
DYEAR=2016
DGENRE=Rap
TTITLE0=Gratitude
TTITLE1=Leslie Nope
TTITLE2=Nice things
TTITLE3=Echoes
TTITLE4=Fuck the money
TTITLE5=Fall back
TTITLE6=He said she said
TTITLE7=Butterfly
TTITLE8=Baby girl
TTITLE9=The venetian
TTITLE10=Money good
EXTD=
EXTT0=
EXTT1=
EXTT2=
EXTT3=
EXTT4=
EXTT5=
EXTT6=
EXTT7=
EXTT8=
EXTT9=
EXTT10=
PLAYORDER=
